# xmcd
#
# Track frame offsets:
#	150
#	16650
#	30517
#	50917
#	69115
#	92587
#	110027
#	136257
#	162995
#	181610
#	204302
#	229735
#
# Disc length: 3379 seconds
#
# Revision: 1
# Processed by: cddbd v1.5.1PL0 Copyright (c) Steve Scherf et al.
# Submitted via: CDex 1.50Beta5
#
DISCID=900d310c
DTITLE=中村雅俊 - Stepping Stones
DYEAR=2000
DGENRE=
TTITLE0=ふれあい
TTITLE1=いつか街で会ったなら
TTITLE2=時代遅れの恋人たち
TTITLE3=海を抱きしめて
TTITLE4=恋人も濡れる街角
TTITLE5=想い出のクリフサイド・ホテル
TTITLE6=SILENT LOVE
TTITLE7=70年代
TTITLE8=Sincerely(Day and Day)
TTITLE9=Born Again
TTITLE10=家路
TTITLE11=心の地図II
EXTD=
EXTT0=
EXTT1=
EXTT2=
EXTT3=
EXTT4=
EXTT5=
EXTT6=
EXTT7=
EXTT8=
EXTT9=
EXTT10=
EXTT11=
PLAYORDER=
